<?xml version="1.0" encoding="utf-8"?>
<!-- Generator: Adobe Illustrator 28.2.0, SVG Export Plug-In . SVG Version: 6.00 Build 0)  -->
<svg version="1.1" id="Layer_1" focusable="false" xmlns="http://www.w3.org/2000/svg" xmlns:xlink="http://www.w3.org/1999/xlink"
	 x="0px" y="0px" viewBox="0 0 17.4 16.9" style="enable-background:new 0 0 17.4 16.9;" xml:space="preserve">
<style type="text/css">
	.st0{fill-rule:evenodd;clip-rule:evenodd;}
</style>
<path class="st0" d="M3.9,0H0.8L0,11.6c-0.2,2.8,1.9,5.1,4.6,5.3c0.1,0,0.2,0,0.3,0h7.4c2.8,0,5-2.2,5-5c0-0.1,0-0.2,0-0.3L16.6,0
	L3.9,0z M3.9,1H1.7L1,11.7c-0.1,2.2,1.5,4.1,3.7,4.3c0.1,0,0.2,0,0.3,0h7.4c2.2,0,4-1.8,4-4c0-0.1,0-0.2,0-0.3L15.7,1h-2.2v0.6
	c0,2.6-2.1,4.7-4.8,4.7S3.9,4.3,3.9,1.6V1z M12.4,1H4.9v0.6c0,2.1,1.7,3.8,3.8,3.8s3.8-1.7,3.8-3.8V1z"/>
</svg>
